<mxfile host="app.diagrams.net" agent="Mozilla/5.0 (Windows NT 10.0; Win64; x64) AppleWebKit/537.36 (KHTML, like Gecko) Chrome/128.0.0.0 Safari/537.36 OPR/114.0.0.0 (Edition Yx 05)" version="24.9.0">
  <diagram name="Страница — 1" id="jc-ILsq1MudIU7hS7ZJx">
    <mxGraphModel dx="4040" dy="3519" grid="1" gridSize="10" guides="1" tooltips="1" connect="1" arrows="1" fold="1" page="1" pageScale="1" pageWidth="827" pageHeight="1169" background="#FFFFFF" math="0" shadow="0">
      <root>
        <mxCell id="0" />
        <mxCell id="1" parent="0" />
        <mxCell id="mJNQn3kkYG4BmGqxeNUJ-1" style="edgeStyle=orthogonalEdgeStyle;rounded=0;orthogonalLoop=1;jettySize=auto;html=1;entryX=0.5;entryY=0;entryDx=0;entryDy=0;" parent="1" target="mJNQn3kkYG4BmGqxeNUJ-4" edge="1">
          <mxGeometry relative="1" as="geometry">
            <mxPoint x="370" y="-980" as="sourcePoint" />
          </mxGeometry>
        </mxCell>
        <mxCell id="mJNQn3kkYG4BmGqxeNUJ-3" style="edgeStyle=orthogonalEdgeStyle;rounded=0;orthogonalLoop=1;jettySize=auto;html=1;entryX=0.5;entryY=0;entryDx=0;entryDy=0;" parent="1" source="mJNQn3kkYG4BmGqxeNUJ-4" edge="1">
          <mxGeometry relative="1" as="geometry">
            <mxPoint x="370" y="-800" as="targetPoint" />
          </mxGeometry>
        </mxCell>
        <mxCell id="mJNQn3kkYG4BmGqxeNUJ-4" value="int x,y,n,b;" style="rounded=0;whiteSpace=wrap;html=1;" parent="1" vertex="1">
          <mxGeometry x="310" y="-920" width="120" height="60" as="geometry" />
        </mxCell>
        <mxCell id="mJNQn3kkYG4BmGqxeNUJ-16" style="edgeStyle=orthogonalEdgeStyle;rounded=0;orthogonalLoop=1;jettySize=auto;html=1;entryX=0.5;entryY=0;entryDx=0;entryDy=0;" parent="1" source="mJNQn3kkYG4BmGqxeNUJ-17" target="mJNQn3kkYG4BmGqxeNUJ-20" edge="1">
          <mxGeometry relative="1" as="geometry" />
        </mxCell>
        <mxCell id="mJNQn3kkYG4BmGqxeNUJ-17" value="switch(y)" style="rounded=0;whiteSpace=wrap;html=1;" parent="1" vertex="1">
          <mxGeometry x="312.5" y="-210" width="120" height="60" as="geometry" />
        </mxCell>
        <mxCell id="mJNQn3kkYG4BmGqxeNUJ-19" style="edgeStyle=orthogonalEdgeStyle;rounded=0;orthogonalLoop=1;jettySize=auto;html=1;entryX=0;entryY=0.5;entryDx=0;entryDy=0;" parent="1" source="mJNQn3kkYG4BmGqxeNUJ-20" edge="1">
          <mxGeometry relative="1" as="geometry">
            <mxPoint x="502.5" y="-60" as="targetPoint" />
          </mxGeometry>
        </mxCell>
        <mxCell id="BsOWhWAd5-i-KJwwklfj-87" style="edgeStyle=orthogonalEdgeStyle;rounded=0;orthogonalLoop=1;jettySize=auto;html=1;entryX=0.5;entryY=0;entryDx=0;entryDy=0;" edge="1" parent="1" source="mJNQn3kkYG4BmGqxeNUJ-20" target="BsOWhWAd5-i-KJwwklfj-86">
          <mxGeometry relative="1" as="geometry" />
        </mxCell>
        <mxCell id="mJNQn3kkYG4BmGqxeNUJ-20" value="case 1:" style="rhombus;whiteSpace=wrap;html=1;" parent="1" vertex="1">
          <mxGeometry x="312.5" y="-100" width="120" height="80" as="geometry" />
        </mxCell>
        <mxCell id="mJNQn3kkYG4BmGqxeNUJ-62" value="&lt;div&gt;1&lt;/div&gt;" style="text;html=1;align=center;verticalAlign=middle;whiteSpace=wrap;rounded=0;" parent="1" vertex="1">
          <mxGeometry x="432.5" y="-90" width="60" height="30" as="geometry" />
        </mxCell>
        <mxCell id="mJNQn3kkYG4BmGqxeNUJ-63" value="0" style="text;html=1;align=center;verticalAlign=middle;whiteSpace=wrap;rounded=0;" parent="1" vertex="1">
          <mxGeometry x="322.5" y="-20" width="60" height="30" as="geometry" />
        </mxCell>
        <mxCell id="chMxU0hX9H8VqnJ-FalM-1" value="start" style="rounded=1;whiteSpace=wrap;html=1;arcSize=50;" parent="1" vertex="1">
          <mxGeometry x="310" y="-1040" width="120" height="60" as="geometry" />
        </mxCell>
        <mxCell id="chMxU0hX9H8VqnJ-FalM-6" value="" style="endArrow=none;dashed=1;html=1;rounded=0;" parent="1" edge="1">
          <mxGeometry width="50" height="50" relative="1" as="geometry">
            <mxPoint x="372.5" y="-950" as="sourcePoint" />
            <mxPoint x="442.5" y="-950" as="targetPoint" />
          </mxGeometry>
        </mxCell>
        <mxCell id="chMxU0hX9H8VqnJ-FalM-7" value="#include &amp;lt;iostream&amp;gt;&lt;div&gt;using namespace std;&lt;/div&gt;&lt;div&gt;int main()&lt;/div&gt;&lt;div&gt;{&lt;/div&gt;" style="text;html=1;align=left;verticalAlign=middle;whiteSpace=wrap;rounded=0;" parent="1" vertex="1">
          <mxGeometry x="472.5" y="-980" width="130" height="60" as="geometry" />
        </mxCell>
        <mxCell id="chMxU0hX9H8VqnJ-FalM-8" value="" style="strokeWidth=2;html=1;shape=mxgraph.flowchart.annotation_2;align=left;labelPosition=right;pointerEvents=1;" parent="1" vertex="1">
          <mxGeometry x="432.5" y="-1000" width="50" height="100" as="geometry" />
        </mxCell>
        <mxCell id="BsOWhWAd5-i-KJwwklfj-2" style="edgeStyle=orthogonalEdgeStyle;rounded=0;orthogonalLoop=1;jettySize=auto;html=1;entryX=0.5;entryY=0;entryDx=0;entryDy=0;" edge="1" parent="1">
          <mxGeometry relative="1" as="geometry">
            <mxPoint x="370" y="-740" as="sourcePoint" />
            <mxPoint x="370" y="-680" as="targetPoint" />
          </mxGeometry>
        </mxCell>
        <mxCell id="BsOWhWAd5-i-KJwwklfj-3" value="cin &amp;gt;&amp;gt; x;" style="rounded=0;whiteSpace=wrap;html=1;" vertex="1" parent="1">
          <mxGeometry x="312.5" y="-680" width="120" height="60" as="geometry" />
        </mxCell>
        <mxCell id="BsOWhWAd5-i-KJwwklfj-4" style="edgeStyle=orthogonalEdgeStyle;rounded=0;orthogonalLoop=1;jettySize=auto;html=1;entryX=0.5;entryY=0;entryDx=0;entryDy=0;" edge="1" parent="1">
          <mxGeometry relative="1" as="geometry">
            <mxPoint x="370" y="-620" as="sourcePoint" />
            <mxPoint x="370" y="-560" as="targetPoint" />
          </mxGeometry>
        </mxCell>
        <mxCell id="BsOWhWAd5-i-KJwwklfj-5" value="cout &amp;lt;&amp;lt; &quot;Input operation code &quot;;" style="rounded=0;whiteSpace=wrap;html=1;" vertex="1" parent="1">
          <mxGeometry x="312.5" y="-560" width="120" height="60" as="geometry" />
        </mxCell>
        <mxCell id="BsOWhWAd5-i-KJwwklfj-6" style="edgeStyle=orthogonalEdgeStyle;rounded=0;orthogonalLoop=1;jettySize=auto;html=1;entryX=0.5;entryY=0;entryDx=0;entryDy=0;" edge="1" parent="1">
          <mxGeometry relative="1" as="geometry">
            <mxPoint x="370" y="-500" as="sourcePoint" />
            <mxPoint x="370" y="-440" as="targetPoint" />
          </mxGeometry>
        </mxCell>
        <mxCell id="BsOWhWAd5-i-KJwwklfj-8" style="edgeStyle=orthogonalEdgeStyle;rounded=0;orthogonalLoop=1;jettySize=auto;html=1;entryX=0.5;entryY=0;entryDx=0;entryDy=0;" edge="1" parent="1" source="BsOWhWAd5-i-KJwwklfj-7" target="mJNQn3kkYG4BmGqxeNUJ-17">
          <mxGeometry relative="1" as="geometry" />
        </mxCell>
        <mxCell id="BsOWhWAd5-i-KJwwklfj-7" value="cin &amp;gt;&amp;gt; y;" style="rounded=0;whiteSpace=wrap;html=1;" vertex="1" parent="1">
          <mxGeometry x="312.5" y="-440" width="120" height="60" as="geometry" />
        </mxCell>
        <mxCell id="BsOWhWAd5-i-KJwwklfj-13" style="edgeStyle=orthogonalEdgeStyle;rounded=0;orthogonalLoop=1;jettySize=auto;html=1;entryX=0.5;entryY=0;entryDx=0;entryDy=0;" edge="1" parent="1" source="BsOWhWAd5-i-KJwwklfj-9" target="BsOWhWAd5-i-KJwwklfj-11">
          <mxGeometry relative="1" as="geometry" />
        </mxCell>
        <mxCell id="BsOWhWAd5-i-KJwwklfj-9" value="&lt;span style=&quot;white-space: normal;&quot;&gt;n = sqrt(x);&lt;/span&gt;" style="rounded=0;whiteSpace=wrap;html=1;" vertex="1" parent="1">
          <mxGeometry x="502.5" y="-90" width="120" height="60" as="geometry" />
        </mxCell>
        <mxCell id="BsOWhWAd5-i-KJwwklfj-26" style="edgeStyle=orthogonalEdgeStyle;rounded=0;orthogonalLoop=1;jettySize=auto;html=1;entryX=0.5;entryY=0;entryDx=0;entryDy=0;" edge="1" parent="1" source="BsOWhWAd5-i-KJwwklfj-11" target="BsOWhWAd5-i-KJwwklfj-16">
          <mxGeometry relative="1" as="geometry" />
        </mxCell>
        <mxCell id="BsOWhWAd5-i-KJwwklfj-28" style="edgeStyle=orthogonalEdgeStyle;rounded=0;orthogonalLoop=1;jettySize=auto;html=1;entryX=0.5;entryY=0;entryDx=0;entryDy=0;" edge="1" parent="1" source="BsOWhWAd5-i-KJwwklfj-11" target="BsOWhWAd5-i-KJwwklfj-27">
          <mxGeometry relative="1" as="geometry" />
        </mxCell>
        <mxCell id="BsOWhWAd5-i-KJwwklfj-11" value="if (x == pow(n, 2))" style="rhombus;whiteSpace=wrap;html=1;" vertex="1" parent="1">
          <mxGeometry x="711.25" y="-5" width="120" height="80" as="geometry" />
        </mxCell>
        <mxCell id="BsOWhWAd5-i-KJwwklfj-14" style="edgeStyle=orthogonalEdgeStyle;rounded=0;orthogonalLoop=1;jettySize=auto;html=1;entryX=0.5;entryY=0;entryDx=0;entryDy=0;" edge="1" source="BsOWhWAd5-i-KJwwklfj-16" target="BsOWhWAd5-i-KJwwklfj-18" parent="1">
          <mxGeometry relative="1" as="geometry">
            <mxPoint x="1274" y="270" as="targetPoint" />
          </mxGeometry>
        </mxCell>
        <mxCell id="BsOWhWAd5-i-KJwwklfj-116" style="edgeStyle=orthogonalEdgeStyle;rounded=0;orthogonalLoop=1;jettySize=auto;html=1;entryX=0;entryY=0.5;entryDx=0;entryDy=0;" edge="1" parent="1" source="BsOWhWAd5-i-KJwwklfj-16" target="BsOWhWAd5-i-KJwwklfj-115">
          <mxGeometry relative="1" as="geometry">
            <Array as="points">
              <mxPoint x="1460" y="160" />
              <mxPoint x="1460" y="1440" />
              <mxPoint x="771" y="1440" />
              <mxPoint x="771" y="1560" />
            </Array>
          </mxGeometry>
        </mxCell>
        <mxCell id="BsOWhWAd5-i-KJwwklfj-16" value="for (int i = 1; i &amp;lt;= n; i++)" style="shape=hexagon;perimeter=hexagonPerimeter2;whiteSpace=wrap;html=1;fixedSize=1;" vertex="1" parent="1">
          <mxGeometry x="1181" y="120" width="199" height="80" as="geometry" />
        </mxCell>
        <mxCell id="BsOWhWAd5-i-KJwwklfj-17" style="edgeStyle=orthogonalEdgeStyle;rounded=0;orthogonalLoop=1;jettySize=auto;html=1;entryX=0;entryY=0.5;entryDx=0;entryDy=0;exitX=0.5;exitY=1;exitDx=0;exitDy=0;" edge="1" source="BsOWhWAd5-i-KJwwklfj-18" target="BsOWhWAd5-i-KJwwklfj-16" parent="1">
          <mxGeometry relative="1" as="geometry">
            <Array as="points">
              <mxPoint x="1280" y="370" />
              <mxPoint x="1130" y="370" />
              <mxPoint x="1130" y="160" />
            </Array>
          </mxGeometry>
        </mxCell>
        <mxCell id="BsOWhWAd5-i-KJwwklfj-18" value="cout &amp;lt;&amp;lt; string(n, &#39;*&#39;) &amp;lt;&amp;lt; endl;" style="rounded=0;whiteSpace=wrap;html=1;" vertex="1" parent="1">
          <mxGeometry x="1220.5" y="250" width="120" height="60" as="geometry" />
        </mxCell>
        <mxCell id="BsOWhWAd5-i-KJwwklfj-20" value="1" style="text;html=1;align=center;verticalAlign=middle;whiteSpace=wrap;rounded=0;" vertex="1" parent="1">
          <mxGeometry x="1280" y="210" width="60" height="30" as="geometry" />
        </mxCell>
        <mxCell id="BsOWhWAd5-i-KJwwklfj-33" style="edgeStyle=orthogonalEdgeStyle;rounded=0;orthogonalLoop=1;jettySize=auto;html=1;entryX=0.5;entryY=0;entryDx=0;entryDy=0;" edge="1" parent="1" source="BsOWhWAd5-i-KJwwklfj-27" target="BsOWhWAd5-i-KJwwklfj-31">
          <mxGeometry relative="1" as="geometry" />
        </mxCell>
        <mxCell id="BsOWhWAd5-i-KJwwklfj-60" style="edgeStyle=orthogonalEdgeStyle;rounded=0;orthogonalLoop=1;jettySize=auto;html=1;entryX=0.5;entryY=0;entryDx=0;entryDy=0;" edge="1" parent="1" source="BsOWhWAd5-i-KJwwklfj-27" target="BsOWhWAd5-i-KJwwklfj-59">
          <mxGeometry relative="1" as="geometry" />
        </mxCell>
        <mxCell id="BsOWhWAd5-i-KJwwklfj-27" value="((x % 4 == 0) and (x &amp;gt; 2))" style="rhombus;whiteSpace=wrap;html=1;" vertex="1" parent="1">
          <mxGeometry x="511.25" y="110" width="157.5" height="80" as="geometry" />
        </mxCell>
        <mxCell id="BsOWhWAd5-i-KJwwklfj-34" style="edgeStyle=orthogonalEdgeStyle;rounded=0;orthogonalLoop=1;jettySize=auto;html=1;entryX=0.5;entryY=0;entryDx=0;entryDy=0;" edge="1" parent="1" source="BsOWhWAd5-i-KJwwklfj-31" target="BsOWhWAd5-i-KJwwklfj-32">
          <mxGeometry relative="1" as="geometry" />
        </mxCell>
        <mxCell id="BsOWhWAd5-i-KJwwklfj-31" value="x = x / 4 + 1;" style="rounded=0;whiteSpace=wrap;html=1;" vertex="1" parent="1">
          <mxGeometry x="910" y="220" width="120" height="60" as="geometry" />
        </mxCell>
        <mxCell id="BsOWhWAd5-i-KJwwklfj-44" style="edgeStyle=orthogonalEdgeStyle;rounded=0;orthogonalLoop=1;jettySize=auto;html=1;entryX=0.5;entryY=0;entryDx=0;entryDy=0;" edge="1" parent="1" source="BsOWhWAd5-i-KJwwklfj-32" target="BsOWhWAd5-i-KJwwklfj-37">
          <mxGeometry relative="1" as="geometry" />
        </mxCell>
        <mxCell id="BsOWhWAd5-i-KJwwklfj-32" value="b = x - 2;" style="rounded=0;whiteSpace=wrap;html=1;" vertex="1" parent="1">
          <mxGeometry x="910" y="330" width="120" height="60" as="geometry" />
        </mxCell>
        <mxCell id="BsOWhWAd5-i-KJwwklfj-35" style="edgeStyle=orthogonalEdgeStyle;rounded=0;orthogonalLoop=1;jettySize=auto;html=1;entryX=0.5;entryY=0;entryDx=0;entryDy=0;" edge="1" source="BsOWhWAd5-i-KJwwklfj-37" parent="1">
          <mxGeometry relative="1" as="geometry">
            <mxPoint x="969.9999999999998" y="580" as="targetPoint" />
          </mxGeometry>
        </mxCell>
        <mxCell id="BsOWhWAd5-i-KJwwklfj-125" style="edgeStyle=orthogonalEdgeStyle;rounded=0;orthogonalLoop=1;jettySize=auto;html=1;" edge="1" parent="1" source="BsOWhWAd5-i-KJwwklfj-37">
          <mxGeometry relative="1" as="geometry">
            <mxPoint x="1400" y="1560" as="targetPoint" />
            <Array as="points">
              <mxPoint x="1460" y="490" />
              <mxPoint x="1460" y="1440" />
              <mxPoint x="771" y="1440" />
            </Array>
          </mxGeometry>
        </mxCell>
        <mxCell id="BsOWhWAd5-i-KJwwklfj-37" value="for (int i = 1; i &amp;lt; x-1; i++)" style="shape=hexagon;perimeter=hexagonPerimeter2;whiteSpace=wrap;html=1;fixedSize=1;" vertex="1" parent="1">
          <mxGeometry x="870.5" y="450" width="199" height="80" as="geometry" />
        </mxCell>
        <mxCell id="BsOWhWAd5-i-KJwwklfj-41" value="1" style="text;html=1;align=center;verticalAlign=middle;whiteSpace=wrap;rounded=0;" vertex="1" parent="1">
          <mxGeometry x="972.45" y="540" width="60" height="30" as="geometry" />
        </mxCell>
        <mxCell id="BsOWhWAd5-i-KJwwklfj-42" value="0" style="text;html=1;align=center;verticalAlign=middle;whiteSpace=wrap;rounded=0;" vertex="1" parent="1">
          <mxGeometry x="1072.45" y="450" width="60" height="30" as="geometry" />
        </mxCell>
        <mxCell id="BsOWhWAd5-i-KJwwklfj-47" style="edgeStyle=orthogonalEdgeStyle;rounded=0;orthogonalLoop=1;jettySize=auto;html=1;entryX=0.5;entryY=0;entryDx=0;entryDy=0;" edge="1" parent="1" source="BsOWhWAd5-i-KJwwklfj-45" target="BsOWhWAd5-i-KJwwklfj-46">
          <mxGeometry relative="1" as="geometry" />
        </mxCell>
        <mxCell id="BsOWhWAd5-i-KJwwklfj-49" style="edgeStyle=orthogonalEdgeStyle;rounded=0;orthogonalLoop=1;jettySize=auto;html=1;entryX=0.5;entryY=0;entryDx=0;entryDy=0;exitX=0;exitY=0.5;exitDx=0;exitDy=0;" edge="1" parent="1" source="BsOWhWAd5-i-KJwwklfj-45" target="BsOWhWAd5-i-KJwwklfj-48">
          <mxGeometry relative="1" as="geometry">
            <Array as="points">
              <mxPoint x="820" y="620" />
              <mxPoint x="820" y="820" />
              <mxPoint x="970" y="820" />
            </Array>
          </mxGeometry>
        </mxCell>
        <mxCell id="BsOWhWAd5-i-KJwwklfj-45" value="if (i == 1)" style="rhombus;whiteSpace=wrap;html=1;" vertex="1" parent="1">
          <mxGeometry x="910" y="580" width="120" height="80" as="geometry" />
        </mxCell>
        <mxCell id="BsOWhWAd5-i-KJwwklfj-50" style="edgeStyle=orthogonalEdgeStyle;rounded=0;orthogonalLoop=1;jettySize=auto;html=1;entryX=0.5;entryY=0;entryDx=0;entryDy=0;" edge="1" parent="1" source="BsOWhWAd5-i-KJwwklfj-46" target="BsOWhWAd5-i-KJwwklfj-48">
          <mxGeometry relative="1" as="geometry">
            <Array as="points">
              <mxPoint x="1140" y="820" />
              <mxPoint x="970" y="820" />
            </Array>
          </mxGeometry>
        </mxCell>
        <mxCell id="BsOWhWAd5-i-KJwwklfj-46" value="cout &amp;lt;&amp;lt; string(x, &#39;*&#39;) &amp;lt;&amp;lt; endl;" style="rounded=0;whiteSpace=wrap;html=1;" vertex="1" parent="1">
          <mxGeometry x="1080" y="700" width="120" height="60" as="geometry" />
        </mxCell>
        <mxCell id="BsOWhWAd5-i-KJwwklfj-53" style="edgeStyle=orthogonalEdgeStyle;rounded=0;orthogonalLoop=1;jettySize=auto;html=1;entryX=0.5;entryY=0;entryDx=0;entryDy=0;" edge="1" parent="1" source="BsOWhWAd5-i-KJwwklfj-48" target="BsOWhWAd5-i-KJwwklfj-52">
          <mxGeometry relative="1" as="geometry" />
        </mxCell>
        <mxCell id="BsOWhWAd5-i-KJwwklfj-48" value="cout &amp;lt;&amp;lt; &#39;*&#39; &amp;lt;&amp;lt; string(b, &#39; &#39;) &amp;lt;&amp;lt; &#39;*&#39; &amp;lt;&amp;lt; endl;" style="rounded=0;whiteSpace=wrap;html=1;" vertex="1" parent="1">
          <mxGeometry x="910" y="890" width="120" height="60" as="geometry" />
        </mxCell>
        <mxCell id="BsOWhWAd5-i-KJwwklfj-52" value="if (i == x - 2)" style="rhombus;whiteSpace=wrap;html=1;" vertex="1" parent="1">
          <mxGeometry x="910" y="990" width="120" height="80" as="geometry" />
        </mxCell>
        <mxCell id="BsOWhWAd5-i-KJwwklfj-54" style="edgeStyle=orthogonalEdgeStyle;rounded=0;orthogonalLoop=1;jettySize=auto;html=1;entryX=0.5;entryY=0;entryDx=0;entryDy=0;exitX=1;exitY=0.5;exitDx=0;exitDy=0;" edge="1" parent="1" target="BsOWhWAd5-i-KJwwklfj-55" source="BsOWhWAd5-i-KJwwklfj-52">
          <mxGeometry relative="1" as="geometry">
            <mxPoint x="1032.45" y="1030" as="sourcePoint" />
          </mxGeometry>
        </mxCell>
        <mxCell id="BsOWhWAd5-i-KJwwklfj-55" value="cout &amp;lt;&amp;lt; string(x, &#39;*&#39;) &amp;lt;&amp;lt; endl;" style="rounded=0;whiteSpace=wrap;html=1;" vertex="1" parent="1">
          <mxGeometry x="1080" y="1110" width="120" height="60" as="geometry" />
        </mxCell>
        <mxCell id="BsOWhWAd5-i-KJwwklfj-56" value="&lt;div&gt;1&lt;/div&gt;" style="text;html=1;align=center;verticalAlign=middle;whiteSpace=wrap;rounded=0;" vertex="1" parent="1">
          <mxGeometry x="880" y="-5" width="60" height="30" as="geometry" />
        </mxCell>
        <mxCell id="BsOWhWAd5-i-KJwwklfj-57" value="&lt;div&gt;1&lt;/div&gt;" style="text;html=1;align=center;verticalAlign=middle;whiteSpace=wrap;rounded=0;" vertex="1" parent="1">
          <mxGeometry x="870.5" y="120" width="60" height="30" as="geometry" />
        </mxCell>
        <mxCell id="BsOWhWAd5-i-KJwwklfj-58" value="0" style="text;html=1;align=center;verticalAlign=middle;whiteSpace=wrap;rounded=0;" vertex="1" parent="1">
          <mxGeometry x="622.5" y="-5" width="60" height="30" as="geometry" />
        </mxCell>
        <mxCell id="BsOWhWAd5-i-KJwwklfj-114" style="edgeStyle=orthogonalEdgeStyle;rounded=0;orthogonalLoop=1;jettySize=auto;html=1;entryX=0;entryY=0.5;entryDx=0;entryDy=0;" edge="1" parent="1" source="BsOWhWAd5-i-KJwwklfj-59" target="BsOWhWAd5-i-KJwwklfj-115">
          <mxGeometry relative="1" as="geometry">
            <mxPoint x="590" y="1439.9999999999995" as="targetPoint" />
            <Array as="points">
              <mxPoint x="600" y="1440" />
              <mxPoint x="771" y="1440" />
              <mxPoint x="771" y="1560" />
            </Array>
          </mxGeometry>
        </mxCell>
        <mxCell id="BsOWhWAd5-i-KJwwklfj-59" value="cout &amp;lt;&amp;lt; &quot;Cant draw square with those amount of stars&quot;;" style="rounded=0;whiteSpace=wrap;html=1;" vertex="1" parent="1">
          <mxGeometry x="530" y="270" width="120" height="60" as="geometry" />
        </mxCell>
        <mxCell id="BsOWhWAd5-i-KJwwklfj-68" value="1" style="text;html=1;align=center;verticalAlign=middle;whiteSpace=wrap;rounded=0;" vertex="1" parent="1">
          <mxGeometry x="1032.45" y="580" width="60" height="30" as="geometry" />
        </mxCell>
        <mxCell id="BsOWhWAd5-i-KJwwklfj-69" value="1" style="text;html=1;align=center;verticalAlign=middle;whiteSpace=wrap;rounded=0;" vertex="1" parent="1">
          <mxGeometry x="1032.45" y="990" width="60" height="30" as="geometry" />
        </mxCell>
        <mxCell id="BsOWhWAd5-i-KJwwklfj-70" value="0" style="text;html=1;align=center;verticalAlign=middle;whiteSpace=wrap;rounded=0;" vertex="1" parent="1">
          <mxGeometry x="850" y="990" width="60" height="30" as="geometry" />
        </mxCell>
        <mxCell id="BsOWhWAd5-i-KJwwklfj-71" value="0" style="text;html=1;align=center;verticalAlign=middle;whiteSpace=wrap;rounded=0;" vertex="1" parent="1">
          <mxGeometry x="850" y="580" width="60" height="30" as="geometry" />
        </mxCell>
        <mxCell id="BsOWhWAd5-i-KJwwklfj-74" value="0" style="text;html=1;align=center;verticalAlign=middle;whiteSpace=wrap;rounded=0;" vertex="1" parent="1">
          <mxGeometry x="530" y="200" width="60" height="30" as="geometry" />
        </mxCell>
        <mxCell id="BsOWhWAd5-i-KJwwklfj-82" value="" style="endArrow=none;html=1;rounded=0;exitX=0;exitY=0.5;exitDx=0;exitDy=0;" edge="1" parent="1" source="BsOWhWAd5-i-KJwwklfj-52">
          <mxGeometry width="50" height="50" relative="1" as="geometry">
            <mxPoint x="980" y="1190" as="sourcePoint" />
            <mxPoint x="970" y="1270" as="targetPoint" />
            <Array as="points">
              <mxPoint x="830" y="1030" />
              <mxPoint x="830" y="1270" />
            </Array>
          </mxGeometry>
        </mxCell>
        <mxCell id="BsOWhWAd5-i-KJwwklfj-83" value="" style="endArrow=none;html=1;rounded=0;entryX=0.5;entryY=1;entryDx=0;entryDy=0;" edge="1" parent="1" target="BsOWhWAd5-i-KJwwklfj-55">
          <mxGeometry width="50" height="50" relative="1" as="geometry">
            <mxPoint x="970" y="1270" as="sourcePoint" />
            <mxPoint x="1030" y="1140" as="targetPoint" />
            <Array as="points">
              <mxPoint x="1140" y="1270" />
            </Array>
          </mxGeometry>
        </mxCell>
        <mxCell id="BsOWhWAd5-i-KJwwklfj-84" value="" style="endArrow=classic;html=1;rounded=0;entryX=0;entryY=0.5;entryDx=0;entryDy=0;" edge="1" parent="1" target="BsOWhWAd5-i-KJwwklfj-37">
          <mxGeometry width="50" height="50" relative="1" as="geometry">
            <mxPoint x="970" y="1270" as="sourcePoint" />
            <mxPoint x="1030" y="1230" as="targetPoint" />
            <Array as="points">
              <mxPoint x="970" y="1340" />
              <mxPoint x="750" y="1340" />
              <mxPoint x="750" y="490" />
            </Array>
          </mxGeometry>
        </mxCell>
        <mxCell id="BsOWhWAd5-i-KJwwklfj-89" style="edgeStyle=orthogonalEdgeStyle;rounded=0;orthogonalLoop=1;jettySize=auto;html=1;entryX=0.5;entryY=0;entryDx=0;entryDy=0;exitX=1;exitY=0.5;exitDx=0;exitDy=0;" edge="1" parent="1" source="BsOWhWAd5-i-KJwwklfj-86" target="BsOWhWAd5-i-KJwwklfj-88">
          <mxGeometry relative="1" as="geometry">
            <mxPoint x="464" y="1720" as="sourcePoint" />
          </mxGeometry>
        </mxCell>
        <mxCell id="BsOWhWAd5-i-KJwwklfj-107" style="edgeStyle=orthogonalEdgeStyle;rounded=0;orthogonalLoop=1;jettySize=auto;html=1;entryX=0.5;entryY=0;entryDx=0;entryDy=0;" edge="1" parent="1" source="BsOWhWAd5-i-KJwwklfj-86" target="BsOWhWAd5-i-KJwwklfj-106">
          <mxGeometry relative="1" as="geometry" />
        </mxCell>
        <mxCell id="BsOWhWAd5-i-KJwwklfj-86" value="case 2;" style="rhombus;whiteSpace=wrap;html=1;" vertex="1" parent="1">
          <mxGeometry x="312.5" y="1680" width="120" height="80" as="geometry" />
        </mxCell>
        <mxCell id="BsOWhWAd5-i-KJwwklfj-91" style="edgeStyle=orthogonalEdgeStyle;rounded=0;orthogonalLoop=1;jettySize=auto;html=1;entryX=0.5;entryY=0;entryDx=0;entryDy=0;" edge="1" parent="1" source="BsOWhWAd5-i-KJwwklfj-88" target="BsOWhWAd5-i-KJwwklfj-90">
          <mxGeometry relative="1" as="geometry" />
        </mxCell>
        <mxCell id="BsOWhWAd5-i-KJwwklfj-102" style="edgeStyle=orthogonalEdgeStyle;rounded=0;orthogonalLoop=1;jettySize=auto;html=1;entryX=0.5;entryY=0;entryDx=0;entryDy=0;" edge="1" parent="1" source="BsOWhWAd5-i-KJwwklfj-88" target="BsOWhWAd5-i-KJwwklfj-94">
          <mxGeometry relative="1" as="geometry" />
        </mxCell>
        <mxCell id="BsOWhWAd5-i-KJwwklfj-88" value="if (x &amp;lt; 1)" style="rhombus;whiteSpace=wrap;html=1;" vertex="1" parent="1">
          <mxGeometry x="769.46" y="1760" width="120" height="80" as="geometry" />
        </mxCell>
        <mxCell id="BsOWhWAd5-i-KJwwklfj-120" style="edgeStyle=orthogonalEdgeStyle;rounded=0;orthogonalLoop=1;jettySize=auto;html=1;entryX=0;entryY=0.5;entryDx=0;entryDy=0;" edge="1" parent="1" source="BsOWhWAd5-i-KJwwklfj-90" target="BsOWhWAd5-i-KJwwklfj-119">
          <mxGeometry relative="1" as="geometry">
            <Array as="points">
              <mxPoint x="698" y="2120" />
              <mxPoint x="830" y="2120" />
              <mxPoint x="830" y="2190" />
            </Array>
          </mxGeometry>
        </mxCell>
        <mxCell id="BsOWhWAd5-i-KJwwklfj-90" value="cout &amp;lt;&amp;lt; &quot;Cant draw square with those amount of stars&quot;;" style="rounded=0;whiteSpace=wrap;html=1;" vertex="1" parent="1">
          <mxGeometry x="631.96" y="1860" width="120" height="60" as="geometry" />
        </mxCell>
        <mxCell id="BsOWhWAd5-i-KJwwklfj-92" style="edgeStyle=orthogonalEdgeStyle;rounded=0;orthogonalLoop=1;jettySize=auto;html=1;entryX=0.5;entryY=0;entryDx=0;entryDy=0;" edge="1" source="BsOWhWAd5-i-KJwwklfj-94" target="BsOWhWAd5-i-KJwwklfj-96" parent="1">
          <mxGeometry relative="1" as="geometry">
            <mxPoint x="1003.4000000000001" y="2000" as="targetPoint" />
          </mxGeometry>
        </mxCell>
        <mxCell id="BsOWhWAd5-i-KJwwklfj-121" style="edgeStyle=orthogonalEdgeStyle;rounded=0;orthogonalLoop=1;jettySize=auto;html=1;entryX=0;entryY=0.5;entryDx=0;entryDy=0;" edge="1" parent="1" source="BsOWhWAd5-i-KJwwklfj-94" target="BsOWhWAd5-i-KJwwklfj-119">
          <mxGeometry relative="1" as="geometry">
            <Array as="points">
              <mxPoint x="1188" y="1890" />
              <mxPoint x="1188" y="2120" />
              <mxPoint x="830" y="2120" />
              <mxPoint x="830" y="2190" />
            </Array>
          </mxGeometry>
        </mxCell>
        <mxCell id="BsOWhWAd5-i-KJwwklfj-94" value="for (int i = 1; i &amp;lt;= x; i++)" style="shape=hexagon;perimeter=hexagonPerimeter2;whiteSpace=wrap;html=1;fixedSize=1;" vertex="1" parent="1">
          <mxGeometry x="910.4000000000001" y="1850" width="199" height="80" as="geometry" />
        </mxCell>
        <mxCell id="BsOWhWAd5-i-KJwwklfj-95" style="edgeStyle=orthogonalEdgeStyle;rounded=0;orthogonalLoop=1;jettySize=auto;html=1;entryX=0;entryY=0.5;entryDx=0;entryDy=0;exitX=0.5;exitY=1;exitDx=0;exitDy=0;" edge="1" source="BsOWhWAd5-i-KJwwklfj-96" target="BsOWhWAd5-i-KJwwklfj-94" parent="1">
          <mxGeometry relative="1" as="geometry">
            <Array as="points">
              <mxPoint x="1009.4000000000001" y="2100" />
              <mxPoint x="859.4000000000001" y="2100" />
              <mxPoint x="859.4000000000001" y="1890" />
            </Array>
          </mxGeometry>
        </mxCell>
        <mxCell id="BsOWhWAd5-i-KJwwklfj-96" value="cout &amp;lt;&amp;lt; string(x, &#39;*&#39;) &amp;lt;&amp;lt; endl;" style="rounded=0;whiteSpace=wrap;html=1;" vertex="1" parent="1">
          <mxGeometry x="949.9000000000001" y="1980" width="120" height="60" as="geometry" />
        </mxCell>
        <mxCell id="BsOWhWAd5-i-KJwwklfj-98" value="1" style="text;html=1;align=center;verticalAlign=middle;whiteSpace=wrap;rounded=0;" vertex="1" parent="1">
          <mxGeometry x="1009.4000000000001" y="1940" width="60" height="30" as="geometry" />
        </mxCell>
        <mxCell id="BsOWhWAd5-i-KJwwklfj-99" value="0" style="text;html=1;align=center;verticalAlign=middle;whiteSpace=wrap;rounded=0;" vertex="1" parent="1">
          <mxGeometry x="1109.4" y="1850" width="60" height="30" as="geometry" />
        </mxCell>
        <mxCell id="BsOWhWAd5-i-KJwwklfj-100" value="1" style="text;html=1;align=center;verticalAlign=middle;whiteSpace=wrap;rounded=0;" vertex="1" parent="1">
          <mxGeometry x="709.46" y="1760" width="60" height="30" as="geometry" />
        </mxCell>
        <mxCell id="BsOWhWAd5-i-KJwwklfj-101" value="0" style="text;html=1;align=center;verticalAlign=middle;whiteSpace=wrap;rounded=0;rotation=180;" vertex="1" parent="1">
          <mxGeometry x="899.46" y="1760" width="60" height="30" as="geometry" />
        </mxCell>
        <mxCell id="BsOWhWAd5-i-KJwwklfj-109" style="edgeStyle=orthogonalEdgeStyle;rounded=0;orthogonalLoop=1;jettySize=auto;html=1;entryX=0.5;entryY=0;entryDx=0;entryDy=0;" edge="1" parent="1" source="BsOWhWAd5-i-KJwwklfj-106" target="BsOWhWAd5-i-KJwwklfj-108">
          <mxGeometry relative="1" as="geometry" />
        </mxCell>
        <mxCell id="BsOWhWAd5-i-KJwwklfj-166" style="edgeStyle=orthogonalEdgeStyle;rounded=0;orthogonalLoop=1;jettySize=auto;html=1;entryX=0.5;entryY=0;entryDx=0;entryDy=0;" edge="1" parent="1" source="BsOWhWAd5-i-KJwwklfj-106" target="BsOWhWAd5-i-KJwwklfj-165">
          <mxGeometry relative="1" as="geometry" />
        </mxCell>
        <mxCell id="BsOWhWAd5-i-KJwwklfj-106" value="case 3;" style="rhombus;whiteSpace=wrap;html=1;" vertex="1" parent="1">
          <mxGeometry x="312.5" y="2340" width="120" height="80" as="geometry" />
        </mxCell>
        <mxCell id="BsOWhWAd5-i-KJwwklfj-111" style="edgeStyle=orthogonalEdgeStyle;rounded=0;orthogonalLoop=1;jettySize=auto;html=1;entryX=0.5;entryY=0;entryDx=0;entryDy=0;" edge="1" parent="1" source="BsOWhWAd5-i-KJwwklfj-108" target="BsOWhWAd5-i-KJwwklfj-110">
          <mxGeometry relative="1" as="geometry" />
        </mxCell>
        <mxCell id="BsOWhWAd5-i-KJwwklfj-127" style="edgeStyle=orthogonalEdgeStyle;rounded=0;orthogonalLoop=1;jettySize=auto;html=1;entryX=0.5;entryY=0;entryDx=0;entryDy=0;" edge="1" parent="1" source="BsOWhWAd5-i-KJwwklfj-108" target="BsOWhWAd5-i-KJwwklfj-126">
          <mxGeometry relative="1" as="geometry" />
        </mxCell>
        <mxCell id="BsOWhWAd5-i-KJwwklfj-108" value="if (x &amp;lt;= 2)" style="rhombus;whiteSpace=wrap;html=1;" vertex="1" parent="1">
          <mxGeometry x="561.5" y="2440" width="120" height="80" as="geometry" />
        </mxCell>
        <mxCell id="BsOWhWAd5-i-KJwwklfj-159" style="edgeStyle=orthogonalEdgeStyle;rounded=0;orthogonalLoop=1;jettySize=auto;html=1;entryX=0;entryY=0.5;entryDx=0;entryDy=0;" edge="1" parent="1" source="BsOWhWAd5-i-KJwwklfj-110" target="BsOWhWAd5-i-KJwwklfj-158">
          <mxGeometry relative="1" as="geometry">
            <Array as="points">
              <mxPoint x="463" y="3600" />
              <mxPoint x="622" y="3600" />
              <mxPoint x="622" y="3730" />
            </Array>
          </mxGeometry>
        </mxCell>
        <mxCell id="BsOWhWAd5-i-KJwwklfj-110" value="cout &amp;lt;&amp;lt; &quot;Cant draw square with those amount of stars&quot;;" style="rounded=0;whiteSpace=wrap;html=1;" vertex="1" parent="1">
          <mxGeometry x="402.5" y="2540" width="120" height="60" as="geometry" />
        </mxCell>
        <mxCell id="BsOWhWAd5-i-KJwwklfj-112" value="1" style="text;html=1;align=center;verticalAlign=middle;whiteSpace=wrap;rounded=0;" vertex="1" parent="1">
          <mxGeometry x="482.50000000000006" y="2440" width="60" height="30" as="geometry" />
        </mxCell>
        <mxCell id="BsOWhWAd5-i-KJwwklfj-113" value="0" style="text;html=1;align=center;verticalAlign=middle;whiteSpace=wrap;rounded=0;rotation=180;" vertex="1" parent="1">
          <mxGeometry x="681.5" y="2440" width="60" height="30" as="geometry" />
        </mxCell>
        <mxCell id="BsOWhWAd5-i-KJwwklfj-115" value="break;" style="rounded=0;whiteSpace=wrap;html=1;" vertex="1" parent="1">
          <mxGeometry x="1400" y="1530" width="120" height="60" as="geometry" />
        </mxCell>
        <mxCell id="BsOWhWAd5-i-KJwwklfj-118" value="0" style="text;html=1;align=center;verticalAlign=middle;whiteSpace=wrap;rounded=0;" vertex="1" parent="1">
          <mxGeometry x="1390" y="120" width="60" height="30" as="geometry" />
        </mxCell>
        <mxCell id="BsOWhWAd5-i-KJwwklfj-119" value="break;" style="rounded=0;whiteSpace=wrap;html=1;" vertex="1" parent="1">
          <mxGeometry x="1400" y="2160" width="120" height="60" as="geometry" />
        </mxCell>
        <mxCell id="BsOWhWAd5-i-KJwwklfj-136" style="edgeStyle=orthogonalEdgeStyle;rounded=0;orthogonalLoop=1;jettySize=auto;html=1;entryX=0.5;entryY=0;entryDx=0;entryDy=0;" edge="1" parent="1" source="BsOWhWAd5-i-KJwwklfj-126" target="BsOWhWAd5-i-KJwwklfj-138">
          <mxGeometry relative="1" as="geometry">
            <mxPoint x="766.7499999999995" y="2660" as="targetPoint" />
          </mxGeometry>
        </mxCell>
        <mxCell id="BsOWhWAd5-i-KJwwklfj-126" value="&amp;nbsp;b = x - 2;" style="rounded=0;whiteSpace=wrap;html=1;" vertex="1" parent="1">
          <mxGeometry x="730" y="2540" width="120" height="60" as="geometry" />
        </mxCell>
        <mxCell id="BsOWhWAd5-i-KJwwklfj-137" style="edgeStyle=orthogonalEdgeStyle;rounded=0;orthogonalLoop=1;jettySize=auto;html=1;entryX=0.5;entryY=0;entryDx=0;entryDy=0;" edge="1" parent="1" source="BsOWhWAd5-i-KJwwklfj-138">
          <mxGeometry relative="1" as="geometry">
            <mxPoint x="789.9999999999998" y="2790" as="targetPoint" />
          </mxGeometry>
        </mxCell>
        <mxCell id="BsOWhWAd5-i-KJwwklfj-160" style="edgeStyle=orthogonalEdgeStyle;rounded=0;orthogonalLoop=1;jettySize=auto;html=1;entryX=0;entryY=0.5;entryDx=0;entryDy=0;" edge="1" parent="1" source="BsOWhWAd5-i-KJwwklfj-138" target="BsOWhWAd5-i-KJwwklfj-158">
          <mxGeometry relative="1" as="geometry">
            <mxPoint x="620" y="3650" as="targetPoint" />
            <Array as="points">
              <mxPoint x="1110" y="2700" />
              <mxPoint x="1110" y="3600" />
              <mxPoint x="620" y="3600" />
              <mxPoint x="620" y="3730" />
            </Array>
          </mxGeometry>
        </mxCell>
        <mxCell id="BsOWhWAd5-i-KJwwklfj-138" value="for (int i = 1; i &amp;lt; x-1; i++)" style="shape=hexagon;perimeter=hexagonPerimeter2;whiteSpace=wrap;html=1;fixedSize=1;" vertex="1" parent="1">
          <mxGeometry x="690.5" y="2660" width="199" height="80" as="geometry" />
        </mxCell>
        <mxCell id="BsOWhWAd5-i-KJwwklfj-139" value="1" style="text;html=1;align=center;verticalAlign=middle;whiteSpace=wrap;rounded=0;" vertex="1" parent="1">
          <mxGeometry x="792.45" y="2750" width="60" height="30" as="geometry" />
        </mxCell>
        <mxCell id="BsOWhWAd5-i-KJwwklfj-140" value="0" style="text;html=1;align=center;verticalAlign=middle;whiteSpace=wrap;rounded=0;" vertex="1" parent="1">
          <mxGeometry x="892.45" y="2660" width="60" height="30" as="geometry" />
        </mxCell>
        <mxCell id="BsOWhWAd5-i-KJwwklfj-141" style="edgeStyle=orthogonalEdgeStyle;rounded=0;orthogonalLoop=1;jettySize=auto;html=1;entryX=0.5;entryY=0;entryDx=0;entryDy=0;" edge="1" parent="1" source="BsOWhWAd5-i-KJwwklfj-143" target="BsOWhWAd5-i-KJwwklfj-145">
          <mxGeometry relative="1" as="geometry" />
        </mxCell>
        <mxCell id="BsOWhWAd5-i-KJwwklfj-142" style="edgeStyle=orthogonalEdgeStyle;rounded=0;orthogonalLoop=1;jettySize=auto;html=1;entryX=0.5;entryY=0;entryDx=0;entryDy=0;exitX=0;exitY=0.5;exitDx=0;exitDy=0;" edge="1" parent="1" source="BsOWhWAd5-i-KJwwklfj-143" target="BsOWhWAd5-i-KJwwklfj-147">
          <mxGeometry relative="1" as="geometry">
            <Array as="points">
              <mxPoint x="640" y="2830" />
              <mxPoint x="640" y="3030" />
              <mxPoint x="790" y="3030" />
            </Array>
          </mxGeometry>
        </mxCell>
        <mxCell id="BsOWhWAd5-i-KJwwklfj-143" value="if (i == 1)" style="rhombus;whiteSpace=wrap;html=1;" vertex="1" parent="1">
          <mxGeometry x="730" y="2790" width="120" height="80" as="geometry" />
        </mxCell>
        <mxCell id="BsOWhWAd5-i-KJwwklfj-144" style="edgeStyle=orthogonalEdgeStyle;rounded=0;orthogonalLoop=1;jettySize=auto;html=1;entryX=0.5;entryY=0;entryDx=0;entryDy=0;" edge="1" parent="1" source="BsOWhWAd5-i-KJwwklfj-145" target="BsOWhWAd5-i-KJwwklfj-147">
          <mxGeometry relative="1" as="geometry">
            <Array as="points">
              <mxPoint x="960" y="3030" />
              <mxPoint x="790" y="3030" />
            </Array>
          </mxGeometry>
        </mxCell>
        <mxCell id="BsOWhWAd5-i-KJwwklfj-145" value="cout &amp;lt;&amp;lt; string(x, &#39;*&#39;) &amp;lt;&amp;lt; endl;" style="rounded=0;whiteSpace=wrap;html=1;" vertex="1" parent="1">
          <mxGeometry x="900" y="2910" width="120" height="60" as="geometry" />
        </mxCell>
        <mxCell id="BsOWhWAd5-i-KJwwklfj-146" style="edgeStyle=orthogonalEdgeStyle;rounded=0;orthogonalLoop=1;jettySize=auto;html=1;entryX=0.5;entryY=0;entryDx=0;entryDy=0;" edge="1" parent="1" source="BsOWhWAd5-i-KJwwklfj-147" target="BsOWhWAd5-i-KJwwklfj-148">
          <mxGeometry relative="1" as="geometry" />
        </mxCell>
        <mxCell id="BsOWhWAd5-i-KJwwklfj-147" value="cout &amp;lt;&amp;lt; &#39;*&#39; &amp;lt;&amp;lt; string(b, &#39; &#39;) &amp;lt;&amp;lt; &#39;*&#39; &amp;lt;&amp;lt; endl;" style="rounded=0;whiteSpace=wrap;html=1;" vertex="1" parent="1">
          <mxGeometry x="730" y="3100" width="120" height="60" as="geometry" />
        </mxCell>
        <mxCell id="BsOWhWAd5-i-KJwwklfj-148" value="if (i == x - 2)" style="rhombus;whiteSpace=wrap;html=1;" vertex="1" parent="1">
          <mxGeometry x="730" y="3200" width="120" height="80" as="geometry" />
        </mxCell>
        <mxCell id="BsOWhWAd5-i-KJwwklfj-149" style="edgeStyle=orthogonalEdgeStyle;rounded=0;orthogonalLoop=1;jettySize=auto;html=1;entryX=0.5;entryY=0;entryDx=0;entryDy=0;exitX=1;exitY=0.5;exitDx=0;exitDy=0;" edge="1" parent="1" source="BsOWhWAd5-i-KJwwklfj-148" target="BsOWhWAd5-i-KJwwklfj-150">
          <mxGeometry relative="1" as="geometry">
            <mxPoint x="852.45" y="3240" as="sourcePoint" />
          </mxGeometry>
        </mxCell>
        <mxCell id="BsOWhWAd5-i-KJwwklfj-150" value="cout &amp;lt;&amp;lt; string(x, &#39;*&#39;) &amp;lt;&amp;lt; endl;" style="rounded=0;whiteSpace=wrap;html=1;" vertex="1" parent="1">
          <mxGeometry x="900" y="3320" width="120" height="60" as="geometry" />
        </mxCell>
        <mxCell id="BsOWhWAd5-i-KJwwklfj-151" value="1" style="text;html=1;align=center;verticalAlign=middle;whiteSpace=wrap;rounded=0;" vertex="1" parent="1">
          <mxGeometry x="852.45" y="2790" width="60" height="30" as="geometry" />
        </mxCell>
        <mxCell id="BsOWhWAd5-i-KJwwklfj-152" value="1" style="text;html=1;align=center;verticalAlign=middle;whiteSpace=wrap;rounded=0;" vertex="1" parent="1">
          <mxGeometry x="852.45" y="3200" width="60" height="30" as="geometry" />
        </mxCell>
        <mxCell id="BsOWhWAd5-i-KJwwklfj-153" value="0" style="text;html=1;align=center;verticalAlign=middle;whiteSpace=wrap;rounded=0;" vertex="1" parent="1">
          <mxGeometry x="670" y="3200" width="60" height="30" as="geometry" />
        </mxCell>
        <mxCell id="BsOWhWAd5-i-KJwwklfj-154" value="0" style="text;html=1;align=center;verticalAlign=middle;whiteSpace=wrap;rounded=0;" vertex="1" parent="1">
          <mxGeometry x="670" y="2790" width="60" height="30" as="geometry" />
        </mxCell>
        <mxCell id="BsOWhWAd5-i-KJwwklfj-155" value="" style="endArrow=none;html=1;rounded=0;exitX=0;exitY=0.5;exitDx=0;exitDy=0;" edge="1" parent="1" source="BsOWhWAd5-i-KJwwklfj-148">
          <mxGeometry width="50" height="50" relative="1" as="geometry">
            <mxPoint x="800" y="3400" as="sourcePoint" />
            <mxPoint x="790" y="3480" as="targetPoint" />
            <Array as="points">
              <mxPoint x="650" y="3240" />
              <mxPoint x="650" y="3480" />
            </Array>
          </mxGeometry>
        </mxCell>
        <mxCell id="BsOWhWAd5-i-KJwwklfj-156" value="" style="endArrow=none;html=1;rounded=0;entryX=0.5;entryY=1;entryDx=0;entryDy=0;" edge="1" parent="1" target="BsOWhWAd5-i-KJwwklfj-150">
          <mxGeometry width="50" height="50" relative="1" as="geometry">
            <mxPoint x="790" y="3480" as="sourcePoint" />
            <mxPoint x="850" y="3350" as="targetPoint" />
            <Array as="points">
              <mxPoint x="960" y="3480" />
            </Array>
          </mxGeometry>
        </mxCell>
        <mxCell id="BsOWhWAd5-i-KJwwklfj-157" value="" style="endArrow=classic;html=1;rounded=0;entryX=0;entryY=0.5;entryDx=0;entryDy=0;" edge="1" parent="1" target="BsOWhWAd5-i-KJwwklfj-138">
          <mxGeometry width="50" height="50" relative="1" as="geometry">
            <mxPoint x="790" y="3480" as="sourcePoint" />
            <mxPoint x="850" y="3440" as="targetPoint" />
            <Array as="points">
              <mxPoint x="790" y="3550" />
              <mxPoint x="570" y="3550" />
              <mxPoint x="570" y="2700" />
            </Array>
          </mxGeometry>
        </mxCell>
        <mxCell id="BsOWhWAd5-i-KJwwklfj-158" value="break;" style="rounded=0;whiteSpace=wrap;html=1;" vertex="1" parent="1">
          <mxGeometry x="1400" y="3700" width="120" height="60" as="geometry" />
        </mxCell>
        <mxCell id="BsOWhWAd5-i-KJwwklfj-161" value="0" style="text;html=1;align=center;verticalAlign=middle;whiteSpace=wrap;rounded=0;" vertex="1" parent="1">
          <mxGeometry x="310" y="1800" width="60" height="30" as="geometry" />
        </mxCell>
        <mxCell id="BsOWhWAd5-i-KJwwklfj-162" value="1" style="text;html=1;align=center;verticalAlign=middle;whiteSpace=wrap;rounded=0;" vertex="1" parent="1">
          <mxGeometry x="472.5" y="1670" width="60" height="30" as="geometry" />
        </mxCell>
        <mxCell id="BsOWhWAd5-i-KJwwklfj-163" value="0" style="text;html=1;align=center;verticalAlign=middle;whiteSpace=wrap;rounded=0;" vertex="1" parent="1">
          <mxGeometry x="312.5" y="2470" width="60" height="30" as="geometry" />
        </mxCell>
        <mxCell id="BsOWhWAd5-i-KJwwklfj-164" value="1" style="text;html=1;align=center;verticalAlign=middle;whiteSpace=wrap;rounded=0;" vertex="1" parent="1">
          <mxGeometry x="451.25" y="2320" width="60" height="30" as="geometry" />
        </mxCell>
        <mxCell id="BsOWhWAd5-i-KJwwklfj-190" style="edgeStyle=orthogonalEdgeStyle;rounded=0;orthogonalLoop=1;jettySize=auto;html=1;entryX=0;entryY=0.5;entryDx=0;entryDy=0;" edge="1" parent="1" source="BsOWhWAd5-i-KJwwklfj-165" target="BsOWhWAd5-i-KJwwklfj-189">
          <mxGeometry relative="1" as="geometry" />
        </mxCell>
        <mxCell id="BsOWhWAd5-i-KJwwklfj-165" value="default" style="rhombus;whiteSpace=wrap;html=1;" vertex="1" parent="1">
          <mxGeometry x="310" y="3800" width="120" height="80" as="geometry" />
        </mxCell>
        <mxCell id="BsOWhWAd5-i-KJwwklfj-170" value="cout &amp;lt;&amp;lt;&amp;nbsp;&lt;div&gt;&quot;Input N&lt;span style=&quot;background-color: initial;&quot;&gt;&quot;;&lt;/span&gt;&lt;/div&gt;" style="shape=parallelogram;perimeter=parallelogramPerimeter;whiteSpace=wrap;html=1;fixedSize=1;" vertex="1" parent="1">
          <mxGeometry x="290" y="-800" width="160" height="70" as="geometry" />
        </mxCell>
        <mxCell id="BsOWhWAd5-i-KJwwklfj-172" value="cin &amp;gt;&amp;gt; x;" style="shape=parallelogram;perimeter=parallelogramPerimeter;whiteSpace=wrap;html=1;fixedSize=1;" vertex="1" parent="1">
          <mxGeometry x="290" y="-685" width="160" height="70" as="geometry" />
        </mxCell>
        <mxCell id="BsOWhWAd5-i-KJwwklfj-173" value="cout &amp;lt;&amp;lt;&amp;nbsp;&lt;div&gt;&quot;Input operation code&lt;span style=&quot;background-color: initial;&quot;&gt;&quot;;&lt;/span&gt;&lt;/div&gt;" style="shape=parallelogram;perimeter=parallelogramPerimeter;whiteSpace=wrap;html=1;fixedSize=1;" vertex="1" parent="1">
          <mxGeometry x="290" y="-565" width="160" height="70" as="geometry" />
        </mxCell>
        <mxCell id="BsOWhWAd5-i-KJwwklfj-174" value="cin &amp;gt;&amp;gt; y;" style="shape=parallelogram;perimeter=parallelogramPerimeter;whiteSpace=wrap;html=1;fixedSize=1;" vertex="1" parent="1">
          <mxGeometry x="290" y="-440" width="160" height="70" as="geometry" />
        </mxCell>
        <mxCell id="BsOWhWAd5-i-KJwwklfj-175" value="cout &amp;lt;&amp;lt; &quot;Cant draw square with those amount of stars&quot;;" style="shape=parallelogram;perimeter=parallelogramPerimeter;whiteSpace=wrap;html=1;fixedSize=1;" vertex="1" parent="1">
          <mxGeometry x="511.25" y="265" width="160" height="70" as="geometry" />
        </mxCell>
        <mxCell id="BsOWhWAd5-i-KJwwklfj-176" value="cout &amp;lt;&amp;lt; string(x, &#39;*&#39;) &amp;lt;&amp;lt; endl;" style="shape=parallelogram;perimeter=parallelogramPerimeter;whiteSpace=wrap;html=1;fixedSize=1;" vertex="1" parent="1">
          <mxGeometry x="1059.4" y="700" width="160" height="70" as="geometry" />
        </mxCell>
        <mxCell id="BsOWhWAd5-i-KJwwklfj-177" value="cout &amp;lt;&amp;lt; &#39;*&#39; &amp;lt;&amp;lt; string(b, &#39; &#39;) &amp;lt;&amp;lt; &#39;*&#39; &amp;lt;&amp;lt; endl;" style="shape=parallelogram;perimeter=parallelogramPerimeter;whiteSpace=wrap;html=1;fixedSize=1;" vertex="1" parent="1">
          <mxGeometry x="890" y="890" width="160" height="70" as="geometry" />
        </mxCell>
        <mxCell id="BsOWhWAd5-i-KJwwklfj-178" value="cout &amp;lt;&amp;lt; string(x, &#39;*&#39;) &amp;lt;&amp;lt; endl;" style="shape=parallelogram;perimeter=parallelogramPerimeter;whiteSpace=wrap;html=1;fixedSize=1;" vertex="1" parent="1">
          <mxGeometry x="1059.4" y="1110" width="160" height="70" as="geometry" />
        </mxCell>
        <mxCell id="BsOWhWAd5-i-KJwwklfj-180" value="cout &amp;lt;&amp;lt; string(n, &#39;*&#39;) &amp;lt;&amp;lt; endl;" style="shape=parallelogram;perimeter=parallelogramPerimeter;whiteSpace=wrap;html=1;fixedSize=1;" vertex="1" parent="1">
          <mxGeometry x="1200" y="250" width="160" height="70" as="geometry" />
        </mxCell>
        <mxCell id="BsOWhWAd5-i-KJwwklfj-181" value="cout &amp;lt;&amp;lt; &quot;Cant draw square with those amount of stars&quot;;" style="shape=parallelogram;perimeter=parallelogramPerimeter;whiteSpace=wrap;html=1;fixedSize=1;" vertex="1" parent="1">
          <mxGeometry x="611.96" y="1860" width="160" height="70" as="geometry" />
        </mxCell>
        <mxCell id="BsOWhWAd5-i-KJwwklfj-183" value="cout &amp;lt;&amp;lt; string(x, &#39;*&#39;) &amp;lt;&amp;lt; endl;" style="shape=parallelogram;perimeter=parallelogramPerimeter;whiteSpace=wrap;html=1;fixedSize=1;" vertex="1" parent="1">
          <mxGeometry x="932.45" y="1980" width="160" height="70" as="geometry" />
        </mxCell>
        <mxCell id="BsOWhWAd5-i-KJwwklfj-184" value="cout &amp;lt;&amp;lt; &quot;Cant draw square with those amount of stars&quot;;" style="shape=parallelogram;perimeter=parallelogramPerimeter;whiteSpace=wrap;html=1;fixedSize=1;" vertex="1" parent="1">
          <mxGeometry x="382.5" y="2540" width="160" height="70" as="geometry" />
        </mxCell>
        <mxCell id="BsOWhWAd5-i-KJwwklfj-185" value="cout &amp;lt;&amp;lt; string(x, &#39;*&#39;) &amp;lt;&amp;lt; endl;" style="shape=parallelogram;perimeter=parallelogramPerimeter;whiteSpace=wrap;html=1;fixedSize=1;" vertex="1" parent="1">
          <mxGeometry x="880" y="2910" width="160" height="70" as="geometry" />
        </mxCell>
        <mxCell id="BsOWhWAd5-i-KJwwklfj-186" value="cout &amp;lt;&amp;lt; &#39;*&#39; &amp;lt;&amp;lt; string(b, &#39; &#39;) &amp;lt;&amp;lt; &#39;*&#39; &amp;lt;&amp;lt; endl;" style="shape=parallelogram;perimeter=parallelogramPerimeter;whiteSpace=wrap;html=1;fixedSize=1;" vertex="1" parent="1">
          <mxGeometry x="709.46" y="3100" width="160" height="70" as="geometry" />
        </mxCell>
        <mxCell id="BsOWhWAd5-i-KJwwklfj-187" value="cout &amp;lt;&amp;lt; string(x, &#39;*&#39;) &amp;lt;&amp;lt; endl;" style="shape=parallelogram;perimeter=parallelogramPerimeter;whiteSpace=wrap;html=1;fixedSize=1;" vertex="1" parent="1">
          <mxGeometry x="880" y="3320" width="160" height="70" as="geometry" />
        </mxCell>
        <mxCell id="BsOWhWAd5-i-KJwwklfj-192" style="edgeStyle=orthogonalEdgeStyle;rounded=0;orthogonalLoop=1;jettySize=auto;html=1;entryX=0;entryY=0.5;entryDx=0;entryDy=0;" edge="1" parent="1" source="BsOWhWAd5-i-KJwwklfj-189" target="BsOWhWAd5-i-KJwwklfj-191">
          <mxGeometry relative="1" as="geometry" />
        </mxCell>
        <mxCell id="BsOWhWAd5-i-KJwwklfj-189" value="cout &amp;lt;&amp;lt; &quot;Wrong operation code&quot;;" style="shape=parallelogram;perimeter=parallelogramPerimeter;whiteSpace=wrap;html=1;fixedSize=1;" vertex="1" parent="1">
          <mxGeometry x="511.25" y="3805" width="160" height="70" as="geometry" />
        </mxCell>
        <mxCell id="BsOWhWAd5-i-KJwwklfj-194" style="edgeStyle=orthogonalEdgeStyle;rounded=0;orthogonalLoop=1;jettySize=auto;html=1;entryX=0.5;entryY=0;entryDx=0;entryDy=0;" edge="1" parent="1" source="BsOWhWAd5-i-KJwwklfj-191" target="BsOWhWAd5-i-KJwwklfj-193">
          <mxGeometry relative="1" as="geometry">
            <Array as="points">
              <mxPoint x="1600" y="3840" />
              <mxPoint x="1600" y="3980" />
              <mxPoint x="892" y="3980" />
            </Array>
          </mxGeometry>
        </mxCell>
        <mxCell id="BsOWhWAd5-i-KJwwklfj-191" value="break;" style="rounded=0;whiteSpace=wrap;html=1;" vertex="1" parent="1">
          <mxGeometry x="1400" y="3810" width="120" height="60" as="geometry" />
        </mxCell>
        <mxCell id="BsOWhWAd5-i-KJwwklfj-193" value="end" style="rounded=1;whiteSpace=wrap;html=1;arcSize=50;" vertex="1" parent="1">
          <mxGeometry x="831.25" y="4160" width="120" height="60" as="geometry" />
        </mxCell>
        <mxCell id="BsOWhWAd5-i-KJwwklfj-195" value="" style="endArrow=none;html=1;rounded=0;entryX=1;entryY=0.5;entryDx=0;entryDy=0;" edge="1" parent="1" target="BsOWhWAd5-i-KJwwklfj-158">
          <mxGeometry width="50" height="50" relative="1" as="geometry">
            <mxPoint x="1600" y="3840" as="sourcePoint" />
            <mxPoint x="1260" y="3820" as="targetPoint" />
            <Array as="points">
              <mxPoint x="1600" y="3730" />
            </Array>
          </mxGeometry>
        </mxCell>
        <mxCell id="BsOWhWAd5-i-KJwwklfj-196" value="" style="endArrow=none;html=1;rounded=0;exitX=1;exitY=0.5;exitDx=0;exitDy=0;" edge="1" parent="1" source="BsOWhWAd5-i-KJwwklfj-119">
          <mxGeometry width="50" height="50" relative="1" as="geometry">
            <mxPoint x="1530" y="2400" as="sourcePoint" />
            <mxPoint x="1600" y="3730" as="targetPoint" />
            <Array as="points">
              <mxPoint x="1600" y="2190" />
            </Array>
          </mxGeometry>
        </mxCell>
        <mxCell id="BsOWhWAd5-i-KJwwklfj-197" value="" style="endArrow=none;html=1;rounded=0;exitX=1;exitY=0.5;exitDx=0;exitDy=0;" edge="1" parent="1" source="BsOWhWAd5-i-KJwwklfj-115">
          <mxGeometry width="50" height="50" relative="1" as="geometry">
            <mxPoint x="1530" y="1790" as="sourcePoint" />
            <mxPoint x="1600" y="2190" as="targetPoint" />
            <Array as="points">
              <mxPoint x="1600" y="1560" />
            </Array>
          </mxGeometry>
        </mxCell>
        <mxCell id="BsOWhWAd5-i-KJwwklfj-201" value="" style="endArrow=none;dashed=1;html=1;rounded=0;" edge="1" parent="1">
          <mxGeometry width="50" height="50" relative="1" as="geometry">
            <mxPoint x="888.5" y="4080" as="sourcePoint" />
            <mxPoint x="1081" y="4080" as="targetPoint" />
          </mxGeometry>
        </mxCell>
        <mxCell id="BsOWhWAd5-i-KJwwklfj-202" value="return 0;&lt;div&gt;}&lt;/div&gt;" style="text;html=1;align=left;verticalAlign=middle;whiteSpace=wrap;rounded=0;" vertex="1" parent="1">
          <mxGeometry x="1121" y="4065" width="60" height="30" as="geometry" />
        </mxCell>
        <mxCell id="BsOWhWAd5-i-KJwwklfj-203" value="" style="strokeWidth=2;html=1;shape=mxgraph.flowchart.annotation_2;align=left;labelPosition=right;pointerEvents=1;" vertex="1" parent="1">
          <mxGeometry x="1081" y="4030" width="50" height="100" as="geometry" />
        </mxCell>
      </root>
    </mxGraphModel>
  </diagram>
</mxfile>
